<?xml version="1.0" encoding="UTF-8" standalone="no"?>
<svg
   xmlns:dc="http://purl.org/dc/elements/1.1/"
   xmlns:cc="http://creativecommons.org/ns#"
   xmlns:rdf="http://www.w3.org/1999/02/22-rdf-syntax-ns#"
   xmlns:svg="http://www.w3.org/2000/svg"
   xmlns="http://www.w3.org/2000/svg"
   xmlns:sodipodi="http://sodipodi.sourceforge.net/DTD/sodipodi-0.dtd"
   xmlns:inkscape="http://www.inkscape.org/namespaces/inkscape"
   id="fd4987a8-7395-4a4c-942d-e43b3ae9a24e"
   data-name="Layer 1"
   width="431.72995"
   height="639.50012"
   viewBox="0 0 431.72994 639.5001"
   version="1.1"
   sodipodi:docname="logo.svg"
   inkscape:version="0.92.3 (2405546, 2018-03-11)">
  <metadata
     id="metadata61">
    <rdf:RDF>
      <cc:Work
         rdf:about="">
        <dc:format>image/svg+xml</dc:format>
        <dc:type
           rdf:resource="http://purl.org/dc/dcmitype/StillImage" />
        <dc:title>walk_dreaming</dc:title>
      </cc:Work>
    </rdf:RDF>
  </metadata>
  <defs
     id="defs59" />
  <sodipodi:namedview
     pagecolor="#ffffff"
     bordercolor="#666666"
     borderopacity="1"
     objecttolerance="10"
     gridtolerance="10"
     guidetolerance="10"
     inkscape:pageopacity="0"
     inkscape:pageshadow="2"
     inkscape:window-width="1920"
     inkscape:window-height="1016"
     id="namedview57"
     showgrid="false"
     fit-margin-top="0"
     fit-margin-left="0"
     fit-margin-right="0"
     fit-margin-bottom="0"
     inkscape:zoom="1.0970682"
     inkscape:cx="242.03257"
     inkscape:cy="308.31811"
     inkscape:window-x="0"
     inkscape:window-y="27"
     inkscape:window-maximized="1"
     inkscape:current-layer="fd4987a8-7395-4a4c-942d-e43b3ae9a24e" />
  <title
     id="title2">walk_dreaming</title>
  <path
     d="m 351.94586,390.3558 q 0,10.44246 -0.9547,20.56113 -0.12723,1.64594 -0.31816,3.292 c -8.86792,83.10793 -63.51727,147.68758 -130.57754,151.35725 h -0.0211 q -1.11389,0.081 -2.22765,0.10792 c -1.27284,0.054 -2.52458,0.072 -3.79742,0.072 a 90.900406,77.07733 0 0 1 -13.4078,-0.82752 q -0.38186,-0.054 -0.76371,-0.10793 C 134.68455,556.35592 82.920225,490.13934 76.789131,407.0134 c -0.04234,-0.57565 -0.08479,-1.1513 -0.106023,-1.727 q -0.540929,-7.39335 -0.530373,-14.93064 c 0,-96.86947 61.735175,-175.39029 137.896565,-175.39029 76.16139,0 137.89658,78.5209 137.89658,175.39033 z"
     id="path6"
     inkscape:connector-curvature="0"
     style="fill:#3f3d7c;stroke-width:1.08597434;fill-opacity:1" />
  <circle
     cx="211.36778"
     cy="175.39026"
     r="147.50774"
     id="circle8"
     style="fill:#3f3d7c" />
  <ellipse
     cx="211.36778"
     cy="296.68829"
     rx="30.58087"
     ry="8.2209606"
     id="ellipse10"
     style="fill:#2f2e41;stroke-width:1.06888449" />
  <ellipse
     cx="162.94492"
     cy="207.66472"
     id="circle12"
     style="fill:#2f2e41;stroke-width:1.86773205"
     rx="24.270975"
     ry="22.789755" />
  <ellipse
     cx="259.164"
     cy="210.45624"
     id="circle14"
     style="fill:#2f2e41;stroke-width:1.75507903"
     rx="21.593384"
     ry="22.618845" />
  <path
     d="m 213.16664,508.18211 a 193.61425,164.79677 0 0 1 -2.11344,24.50066 174.31224,148.36766 0 0 1 -9.89088,32.12788 C 136.2164,556.35592 84.648431,490.13934 78.540593,407.0134 c -0.04218,-0.57565 -0.08447,-1.1513 -0.105621,-1.727 12.553828,-7.82506 26.735048,-12.23232 41.740398,-12.23232 44.57247,0 81.81125,38.81964 90.87785,90.64533 a 193.32539,164.5509 0 0 1 2.11344,24.4827 z"
     id="path16"
     inkscape:connector-curvature="0"
     style="opacity:0.1;stroke-width:1.08391273" />
  <path
     d="m 213.16667,524.37198 a 164.79667,164.79667 0 0 1 -1.79888,24.50066 c -6.0083,40.29473 -26.51539,72.74651 -53.19274,85.15873 a 57.73838,57.73838 0 0 1 -15.974,4.857 53.79485,53.79485 0 0 1 -8.18486,0.61167 56.14144,56.14144 0 0 1 -22.48593,-4.73105 66.69915,66.69915 0 0 1 -15.81207,-9.64195 C 71.36135,605.51927 54.8657,567.74289 54.8657,524.37204 c 0,-63.59029 35.43786,-115.128 79.15049,-115.128 37.93832,0 69.63449,38.81964 77.35162,90.64533 a 164.5509,164.5509 0 0 1 1.79886,24.48261 z"
     id="path18"
     inkscape:connector-curvature="0"
     style="fill:#3f3d7c" />
  <path
     d="m 350.45235,410.91693 q -0.12508,1.64594 -0.31277,3.292 C 341.4216,497.31686 287.6962,561.89651 221.76973,565.56618 h -0.0208 a 172.95365,149.175 0 0 1 -10.09444,-32.88338 194.34657,167.62669 0 0 1 0,-48.98332 c 8.94726,-51.82569 45.69582,-90.64533 89.68155,-90.64533 18.0614,-3e-5 34.91323,6.5479 49.11627,17.86278 z"
     id="path20"
     inkscape:connector-curvature="0"
     style="opacity:0.1;stroke-width:1.07675493" />
  <path
     d="m 367.8699,524.37198 c 0,47.67018 -19.91356,88.55857 -48.28185,106.04369 a 61.45258,61.45258 0 0 1 -15.25442,6.8357 55.28509,55.28509 0 0 1 -30.90466,0.0899 62.29938,62.29938 0 0 1 -17.03529,-7.84307 C 233.7458,614.74743 216.74641,584.95807 211.36779,548.87264 a 167.62669,167.62669 0 0 1 0,-48.98332 c 7.71714,-51.82569 39.4133,-90.64533 77.35162,-90.64533 43.71264,0 79.15049,51.5377 79.15049,115.12799 z"
     id="path22"
     inkscape:connector-curvature="0"
     style="fill:#3f3d7c" />
  <path
     d="m 211.36779,205.97113 c -44.70715,0 -80.94936,30.36348 -80.94936,61.16175 0,18.0611 12.47431,34.10791 31.8,44.29894 7.19406,-13.23519 26.47875,-22.71245 49.14936,-22.71245 22.67061,0 41.95527,9.47725 49.14934,22.71244 19.32572,-10.191 31.8,-26.23784 31.8,-44.29894 3e-5,-30.79826 -36.24218,-61.16174 -80.94934,-61.16174 z"
     id="path24"
     inkscape:connector-curvature="0"
     style="fill:#ff5655;fill-opacity:1" />
  <ellipse
     cx="212.92638"
     cy="267.50793"
     rx="21.5865"
     ry="17.98875"
     id="ellipse26"
     style="fill:#3f3d56;fill-opacity:1" />
  <ellipse
     cx="64.759491"
     cy="148.40717"
     rx="30.58087"
     ry="58.463428"
     id="ellipse28"
     style="fill:#ff5655;fill-opacity:1" />
  <ellipse
     cx="348.98172"
     cy="148.40717"
     rx="30.58087"
     ry="58.463428"
     id="ellipse30"
     style="fill:#ff5655;fill-opacity:1" />
  <path
     d="m 261.46591,8.9943733 a 21.116741,17.89846 0 0 0 -13.19888,3.9169197 31.790367,26.94538 0 0 0 -57.28596,5.485 21.223266,17.98875 0 1 0 0,17.17364 31.790367,26.94538 0 0 0 57.28596,5.485 21.217497,17.98386 0 1 0 13.19888,-32.0605597 z"
     id="path32"
     inkscape:connector-curvature="0"
     style="fill:#3f3d7c;stroke-width:1.08618951" />
  <path
     d="m 111.53024,568.44437 v 66.32451 a 66.69915,66.69915 0 0 1 -15.81207,-9.64195 z"
     id="path34"
     inkscape:connector-curvature="0"
     style="fill:#2f2e41" />
  <path
     d="m 158.17505,634.03137 a 57.73838,57.73838 0 0 1 -15.974,4.857 l 8.41872,-60.712 z"
     id="path36"
     inkscape:connector-curvature="0"
     style="fill:#2f2e41" />
  <path
     d="m 273.42897,568.44437 v 68.89689 a 62.29938,62.29938 0 0 1 -17.03529,-7.84307 z"
     id="path38"
     inkscape:connector-curvature="0"
     style="fill:#2f2e41" />
  <path
     d="m 319.58805,630.41567 a 61.45258,61.45258 0 0 1 -15.25442,6.8357 l 8.18486,-59.07509 z"
     id="path40"
     inkscape:connector-curvature="0"
     style="fill:#2f2e41" />
  <ellipse
     cx="172.42258"
     cy="203.53085"
     id="circle42"
     style="fill:#ffffff;stroke-width:1.85433161"
     rx="7.5321412"
     ry="7.3042612" />
  <ellipse
     cx="253.6109"
     cy="202.45427"
     id="circle44"
     style="fill:#ffffff;stroke-width:1.86338413"
     rx="7.8672533"
     ry="7.0615754" />
</svg>
