<?xml version="1.0" encoding="UTF-8" standalone="no"?>
<svg
   xmlns:dc="http://purl.org/dc/elements/1.1/"
   xmlns:cc="http://creativecommons.org/ns#"
   xmlns:rdf="http://www.w3.org/1999/02/22-rdf-syntax-ns#"
   xmlns:svg="http://www.w3.org/2000/svg"
   xmlns="http://www.w3.org/2000/svg"
   xmlns:sodipodi="http://sodipodi.sourceforge.net/DTD/sodipodi-0.dtd"
   xmlns:inkscape="http://www.inkscape.org/namespaces/inkscape"
   aria-hidden="true"
   focusable="false"
   data-prefix="fas"
   data-icon="euro-sign"
   class="svg-inline--fa fa-euro-sign fa-w-10"
   role="img"
   viewBox="0 0 319.75507 448"
   version="1.1"
   id="svg4"
   sodipodi:docname="euro.svg"
   inkscape:version="0.92.3 (2405546, 2018-03-11)"
   width="319.75507"
   height="448">
  <metadata
     id="metadata10">
    <rdf:RDF>
      <cc:Work
         rdf:about="">
        <dc:format>image/svg+xml</dc:format>
        <dc:type
           rdf:resource="http://purl.org/dc/dcmitype/StillImage" />
        <dc:title></dc:title>
      </cc:Work>
    </rdf:RDF>
  </metadata>
  <defs
     id="defs8" />
  <sodipodi:namedview
     pagecolor="#ffffff"
     bordercolor="#666666"
     borderopacity="1"
     objecttolerance="10"
     gridtolerance="10"
     guidetolerance="10"
     inkscape:pageopacity="0"
     inkscape:pageshadow="2"
     inkscape:window-width="812"
     inkscape:window-height="480"
     id="namedview6"
     showgrid="false"
     inkscape:zoom="0.4609375"
     inkscape:cx="160"
     inkscape:cy="224"
     inkscape:window-x="0"
     inkscape:window-y="28"
     inkscape:window-maximized="0"
     inkscape:current-layer="svg4"
     fit-margin-top="0"
     fit-margin-left="0"
     fit-margin-right="0"
     fit-margin-bottom="0" />
  <path
     d="m 310.706,381.765 c -1.314,-6.63 -7.835,-10.872 -14.424,-9.369 -10.692,2.439 -27.422,5.413 -45.426,5.413 -56.763,0 -101.929,-34.79 -121.461,-85.449 h 113.689 a 12,12 0 0 0 11.708,-9.369 l 6.373,-28.36 C 262.851,247.129 257.146,240 249.457,240 H 115.22 c -1.21,-14.328 -1.414,-28.287 0.137,-42.245 H 261.95 a 12,12 0 0 0 11.723,-9.434 l 6.512,-29.755 C 281.823,151.082 276.124,144 268.462,144 H 130.184 c 20.633,-44.991 62.69,-75.03 117.619,-75.03 14.486,0 28.564,2.25 37.851,4.145 6.216,1.268 12.347,-2.498 14.002,-8.623 L 311.647,20.124 C 313.469,13.383 309.182,6.508 302.321,5.207 290.217,2.912 270.71,0 249.635,0 152.451,0 74.03,60.252 45.075,144 H 12 c -6.627,0 -12,5.373 -12,12 v 29.755 c 0,6.627 5.373,12 12,12 H 33.569 C 32.56,211.362 32.388,227.042 33.388,240 H 12 c -6.627,0 -12,5.373 -12,12 v 28.36 c 0,6.627 5.373,12 12,12 H 42.114 C 67.139,382.692 145.264,448 249.635,448 c 26.301,0 48.562,-4.544 61.101,-7.788 6.167,-1.595 10.027,-7.708 8.788,-13.957 z"
     id="path2"
     style="fill:#010157"
     inkscape:connector-curvature="0" />
</svg>
